<?xml version="1.0" encoding="UTF-8" standalone="no"?>
<svg enable-background="new 0 0 24 24" height="24px" viewBox="0 0 24 24" width="24px" fill="#e8eaed"
        version="1.1" id="svg2" sodipodi:docname="swipe_up_u.svg"
        inkscape:version="1.4 (e7c3feb100, 2024-10-09)"
        xmlns:inkscape="http://www.inkscape.org/namespaces/inkscape"
        xmlns:sodipodi="http://sodipodi.sourceforge.net/DTD/sodipodi-0.dtd"
        xmlns="http://www.w3.org/2000/svg">
    <defs id="defs2" />
    <sodipodi:namedview id="namedview2" pagecolor="#ffffff" bordercolor="#999999" borderopacity="1"
            inkscape:showpageshadow="2" inkscape:pageopacity="0" inkscape:pagecheckerboard="0"
            inkscape:deskcolor="#d1d1d1" showgrid="true" inkscape:zoom="35.125" inkscape:cx="12"
            inkscape:cy="12" inkscape:window-width="1920" inkscape:window-height="1052"
            inkscape:window-x="0" inkscape:window-y="0" inkscape:window-maximized="1"
            inkscape:current-layer="g2">
        <inkscape:grid id="grid2" units="px" originx="0" originy="0" spacingx="1" spacingy="1"
                empcolor="#3f3fff" empopacity="0.25098039" color="#3f3fff" opacity="0.1254902"
                empspacing="5" enabled="true" visible="true" />
    </sodipodi:namedview>
    <g id="g1">
        <rect fill="none" height="24" width="24" id="rect1" />
    </g>
    <g id="g2">
        <path id="path1"
                d="M 12,1 C 8.9135942,0.97153025 6,4 6,7 v 3.099609 C 3.72,10.559609 2,12.58 2,15 c 0,2.76 2.24,5 5,5 2.76,0 5,-2.24 5,-5 0,-2.42 -1.72,-4.440391 -4,-4.900391 V 7 C 8,5 9.9523435,2.9888881 12,3.0097656 14.047656,3.0306431 16,5 16,7 v 6.169922 L 14.410156,11.580078 13,13 17,17 21,13 19.589844,11.589844 18,13.169922 V 7 C 18,4 15.086406,1.0284698 12,1 Z"
                sodipodi:nodetypes="zccssscczcccccccccz" />
    </g>
</svg>
